<svg xmlns="http://www.w3.org/2000/svg" width="400" height="600" viewBox="0 0 400 600" role="img" aria-label="Reborn: The Alpha&#39;s Revenge">
  <defs><linearGradient id="sky" x1="0.08" y1="0" x2="0.92" y2="1">
      <stop offset="0" stop-color="#07182E"/><stop offset="0.52" stop-color="#1D5AA8"/><stop offset="1" stop-color="#07182E"/>
    </linearGradient>
    <radialGradient id="rim" cx="0.5" cy="0.24" r="0.72">
      <stop offset="0" stop-color="#7EC4FF" stop-opacity="0.62"/>
      <stop offset="0.55" stop-color="#7EC4FF" stop-opacity="0.16"/>
      <stop offset="1" stop-color="#7EC4FF" stop-opacity="0"/>
    </radialGradient>
    <linearGradient id="sweep" x1="0" y1="0" x2="1" y2="0.6">
      <stop offset="0" stop-color="#FFFFFF" stop-opacity="0"/>
      <stop offset="0.46" stop-color="#FFFFFF" stop-opacity="0.10"/>
      <stop offset="0.58" stop-color="#FFFFFF" stop-opacity="0"/>
    </linearGradient>
    <radialGradient id="vig" cx="0.5" cy="0.44" r="0.78">
      <stop offset="0.45" stop-color="#000000" stop-opacity="0"/>
      <stop offset="1" stop-color="#000000" stop-opacity="0.62"/>
    </radialGradient>
    <filter id="grain" x="0" y="0" width="100%" height="100%">
      <feTurbulence type="fractalNoise" baseFrequency="0.9" numOctaves="3" seed="88" result="n"/>
      <feColorMatrix in="n" type="saturate" values="0"/>
      <feComponentTransfer><feFuncA type="linear" slope="0.16"/></feComponentTransfer>
    </filter><filter id="soft" x="-30%" y="-30%" width="160%" height="160%">
      <feGaussianBlur stdDeviation="18"/>
    </filter>
    <linearGradient id="band" x1="0" y1="0.36" x2="0" y2="0.78">
      <stop offset="0" stop-color="#05030A" stop-opacity="0"/>
      <stop offset="0.4" stop-color="#05030A" stop-opacity="0.42"/>
      <stop offset="1" stop-color="#05030A" stop-opacity="0"/>
    </linearGradient>
  </defs>
  <rect width="400" height="600" fill="url(#sky)"/>
    <g filter="url(#soft)" opacity="0.9">
      <ellipse cx="256.0" cy="140.0" rx="120.0" ry="104.0" fill="#7EC4FF" opacity="0.30"/>
      <ellipse cx="112.0" cy="268.0" rx="96.0" ry="84.0" fill="#0B2E57" opacity="0.24"/>
    </g>
    <rect width="400" height="600" fill="url(#rim)"/>
    <g opacity="0.85" fill="#030B18">
      <ellipse cx="154.0" cy="202.0" rx="28.0" ry="32.5"/>
      <path d="M 67.2 628.0
               C 67.2 266.1
                 114.2 236.7
                 154.0 236.7
               C 193.8 236.7
                 240.8 266.1
                 240.8 628.0
               Z"/>
    </g>
    <g opacity="0.92" fill="#030B18">
      <ellipse cx="250.0" cy="184.8" rx="31.4" ry="36.4"/>
      <path d="M 152.8 631.4
               C 152.8 256.6
                 205.5 223.7
                 250.0 223.7
               C 294.5 223.7
                 347.2 256.6
                 347.2 631.4
               Z"/>
    </g>
    <rect width="400" height="600" fill="url(#sweep)"/>
    <circle cx="14.4" cy="119.5" r="2.2" fill="#D6ECFF" opacity="0.37"/><circle cx="383.5" cy="292.5" r="1.3" fill="#D6ECFF" opacity="0.21"/><circle cx="146.9" cy="317.1" r="1.8" fill="#D6ECFF" opacity="0.37"/><circle cx="43.2" cy="197.0" r="1.1" fill="#D6ECFF" opacity="0.47"/><circle cx="331.7" cy="62.5" r="1.3" fill="#D6ECFF" opacity="0.60"/><circle cx="308.8" cy="324.8" r="2.5" fill="#D6ECFF" opacity="0.23"/><circle cx="134.3" cy="393.3" r="2.2" fill="#D6ECFF" opacity="0.21"/><circle cx="42.2" cy="441.0" r="2.4" fill="#D6ECFF" opacity="0.60"/><circle cx="358.9" cy="329.7" r="1.8" fill="#D6ECFF" opacity="0.37"/><circle cx="165.0" cy="408.3" r="0.8" fill="#D6ECFF" opacity="0.26"/><circle cx="327.8" cy="53.1" r="1.4" fill="#D6ECFF" opacity="0.49"/><circle cx="257.1" cy="9.2" r="0.9" fill="#D6ECFF" opacity="0.49"/><circle cx="384.3" cy="221.2" r="0.9" fill="#D6ECFF" opacity="0.67"/><circle cx="83.1" cy="94.7" r="2.2" fill="#D6ECFF" opacity="0.22"/><circle cx="327.8" cy="409.7" r="1.4" fill="#D6ECFF" opacity="0.47"/><circle cx="315.2" cy="450.9" r="1.7" fill="#D6ECFF" opacity="0.50"/><circle cx="257.6" cy="66.0" r="2.2" fill="#D6ECFF" opacity="0.55"/><circle cx="12.0" cy="475.9" r="2.1" fill="#D6ECFF" opacity="0.24"/><circle cx="224.0" cy="94.1" r="1.0" fill="#D6ECFF" opacity="0.59"/><circle cx="345.4" cy="402.1" r="2.1" fill="#D6ECFF" opacity="0.45"/><circle cx="132.4" cy="444.0" r="2.3" fill="#D6ECFF" opacity="0.67"/><circle cx="227.4" cy="179.5" r="1.1" fill="#D6ECFF" opacity="0.28"/><circle cx="126.1" cy="9.7" r="1.5" fill="#D6ECFF" opacity="0.43"/><circle cx="175.7" cy="404.5" r="2.5" fill="#D6ECFF" opacity="0.44"/><circle cx="373.8" cy="489.8" r="0.8" fill="#D6ECFF" opacity="0.29"/><circle cx="108.5" cy="65.0" r="1.8" fill="#D6ECFF" opacity="0.59"/>
    <rect width="400" height="600" fill="url(#vig)"/>
    <rect width="400" height="600" filter="url(#grain)" opacity="0.5"/>
  <rect width="400" height="600" fill="url(#band)"/>
  <text x="200" y="328" text-anchor="middle" font-family="Georgia, Times New Roman, serif" font-size="38" font-weight="700" fill="#FFFFFF" style="paint-order: stroke; stroke: rgba(0,0,0,0.35); stroke-width: 6px; stroke-linejoin: round"><tspan x="200" dy="0">Reborn: The</tspan><tspan x="200" dy="41.8">Alpha&#39;s Revenge</tspan></text>
</svg>
