<svg xmlns="http://www.w3.org/2000/svg" width="1600" height="900" viewBox="0 0 1600 900" role="img" aria-label="I Forgot I Was His Wife">
  <defs><linearGradient id="sky" x1="0.08" y1="0" x2="0.92" y2="1">
      <stop offset="0" stop-color="#1A1620"/><stop offset="0.52" stop-color="#6C5A8C"/><stop offset="1" stop-color="#1A1620"/>
    </linearGradient>
    <radialGradient id="rim" cx="0.64" cy="0.36" r="0.72">
      <stop offset="0" stop-color="#C3B2E0" stop-opacity="0.62"/>
      <stop offset="0.55" stop-color="#C3B2E0" stop-opacity="0.16"/>
      <stop offset="1" stop-color="#C3B2E0" stop-opacity="0"/>
    </radialGradient>
    <linearGradient id="sweep" x1="0" y1="0" x2="1" y2="0.6">
      <stop offset="0" stop-color="#FFFFFF" stop-opacity="0"/>
      <stop offset="0.46" stop-color="#FFFFFF" stop-opacity="0.10"/>
      <stop offset="0.58" stop-color="#FFFFFF" stop-opacity="0"/>
    </linearGradient>
    <radialGradient id="vig" cx="0.5" cy="0.44" r="0.78">
      <stop offset="0.45" stop-color="#000000" stop-opacity="0"/>
      <stop offset="1" stop-color="#000000" stop-opacity="0.62"/>
    </radialGradient>
    <filter id="grain" x="0" y="0" width="100%" height="100%">
      <feTurbulence type="fractalNoise" baseFrequency="0.9" numOctaves="3" seed="6" result="n"/>
      <feColorMatrix in="n" type="saturate" values="0"/>
      <feComponentTransfer><feFuncA type="linear" slope="0.16"/></feComponentTransfer>
    </filter><filter id="soft" x="-30%" y="-30%" width="160%" height="160%">
      <feGaussianBlur stdDeviation="41"/>
    </filter></defs>
  <rect width="1600" height="900" fill="url(#sky)"/>
    <g filter="url(#soft)" opacity="0.9">
      <ellipse cx="1150.0" cy="288.0" rx="270.0" ry="234.0" fill="#C3B2E0" opacity="0.30"/>
      <ellipse cx="826.0" cy="576.0" rx="216.0" ry="189.0" fill="#332A47" opacity="0.24"/>
    </g>
    <rect width="1600" height="900" fill="url(#rim)"/>
    <g opacity="0.85" fill="#0C0910">
      <ellipse cx="920.5" cy="427.5" rx="63.0" ry="73.1"/>
      <path d="M 725.2 963.0
               C 725.2 571.8
                 831.0 505.6
                 920.5 505.6
               C 1010.0 505.6
                 1115.8 571.8
                 1115.8 963.0
               Z"/>
    </g>
    <g opacity="0.92" fill="#0C0910">
      <ellipse cx="1136.5" cy="388.8" rx="70.6" ry="81.8"/>
      <path d="M 917.8 970.6
               C 917.8 550.4
                 1036.3 476.3
                 1136.5 476.3
               C 1236.7 476.3
                 1355.2 550.4
                 1355.2 970.6
               Z"/>
    </g>
    <rect width="1600" height="900" fill="url(#sweep)"/>
    <circle cx="249.6" cy="223.7" r="2.2" fill="#EFE7FA" opacity="0.63"/><circle cx="157.8" cy="729.8" r="2.0" fill="#EFE7FA" opacity="0.61"/><circle cx="1478.9" cy="89.0" r="2.0" fill="#EFE7FA" opacity="0.47"/><circle cx="160.2" cy="198.4" r="1.6" fill="#EFE7FA" opacity="0.64"/><circle cx="669.9" cy="56.9" r="1.5" fill="#EFE7FA" opacity="0.32"/><circle cx="183.1" cy="273.2" r="2.4" fill="#EFE7FA" opacity="0.37"/><circle cx="274.5" cy="263.2" r="1.7" fill="#EFE7FA" opacity="0.62"/><circle cx="-34.0" cy="697.8" r="1.1" fill="#EFE7FA" opacity="0.31"/><circle cx="-43.5" cy="420.2" r="1.5" fill="#EFE7FA" opacity="0.50"/><circle cx="754.0" cy="602.6" r="2.1" fill="#EFE7FA" opacity="0.40"/><circle cx="302.9" cy="473.7" r="1.0" fill="#EFE7FA" opacity="0.43"/><circle cx="1572.9" cy="691.8" r="0.7" fill="#EFE7FA" opacity="0.37"/><circle cx="937.8" cy="540.4" r="2.3" fill="#EFE7FA" opacity="0.44"/><circle cx="989.1" cy="187.0" r="2.1" fill="#EFE7FA" opacity="0.53"/><circle cx="871.0" cy="545.2" r="2.2" fill="#EFE7FA" opacity="0.64"/><circle cx="474.0" cy="97.9" r="1.2" fill="#EFE7FA" opacity="0.27"/><circle cx="681.8" cy="187.5" r="1.5" fill="#EFE7FA" opacity="0.25"/><circle cx="31.7" cy="588.1" r="1.5" fill="#EFE7FA" opacity="0.64"/><circle cx="38.9" cy="265.7" r="2.3" fill="#EFE7FA" opacity="0.32"/><circle cx="1062.1" cy="695.7" r="1.6" fill="#EFE7FA" opacity="0.65"/><circle cx="102.6" cy="520.3" r="0.9" fill="#EFE7FA" opacity="0.57"/><circle cx="1343.2" cy="703.0" r="1.5" fill="#EFE7FA" opacity="0.68"/><circle cx="361.9" cy="343.6" r="1.1" fill="#EFE7FA" opacity="0.48"/><circle cx="124.9" cy="315.3" r="2.4" fill="#EFE7FA" opacity="0.32"/><circle cx="444.9" cy="463.4" r="2.3" fill="#EFE7FA" opacity="0.55"/><circle cx="1554.1" cy="278.5" r="0.7" fill="#EFE7FA" opacity="0.32"/>
    <rect width="1600" height="900" fill="url(#vig)"/>
    <rect width="1600" height="900" filter="url(#grain)" opacity="0.5"/>
</svg>
