<svg xmlns="http://www.w3.org/2000/svg" width="400" height="600" viewBox="0 0 400 600" role="img" aria-label="Kitchen of Second Chances">
  <defs><linearGradient id="sky" x1="0.08" y1="0" x2="0.92" y2="1">
      <stop offset="0" stop-color="#231604"/><stop offset="0.52" stop-color="#A8781A"/><stop offset="1" stop-color="#231604"/>
    </linearGradient>
    <radialGradient id="rim" cx="0.5" cy="0.24" r="0.72">
      <stop offset="0" stop-color="#FFD979" stop-opacity="0.62"/>
      <stop offset="0.55" stop-color="#FFD979" stop-opacity="0.16"/>
      <stop offset="1" stop-color="#FFD979" stop-opacity="0"/>
    </radialGradient>
    <linearGradient id="sweep" x1="0" y1="0" x2="1" y2="0.6">
      <stop offset="0" stop-color="#FFFFFF" stop-opacity="0"/>
      <stop offset="0.46" stop-color="#FFFFFF" stop-opacity="0.10"/>
      <stop offset="0.58" stop-color="#FFFFFF" stop-opacity="0"/>
    </linearGradient>
    <radialGradient id="vig" cx="0.5" cy="0.44" r="0.78">
      <stop offset="0.45" stop-color="#000000" stop-opacity="0"/>
      <stop offset="1" stop-color="#000000" stop-opacity="0.62"/>
    </radialGradient>
    <filter id="grain" x="0" y="0" width="100%" height="100%">
      <feTurbulence type="fractalNoise" baseFrequency="0.9" numOctaves="3" seed="17" result="n"/>
      <feColorMatrix in="n" type="saturate" values="0"/>
      <feComponentTransfer><feFuncA type="linear" slope="0.16"/></feComponentTransfer>
    </filter><filter id="soft" x="-30%" y="-30%" width="160%" height="160%">
      <feGaussianBlur stdDeviation="18"/>
    </filter>
    <linearGradient id="band" x1="0" y1="0.36" x2="0" y2="0.78">
      <stop offset="0" stop-color="#05030A" stop-opacity="0"/>
      <stop offset="0.4" stop-color="#05030A" stop-opacity="0.42"/>
      <stop offset="1" stop-color="#05030A" stop-opacity="0"/>
    </linearGradient>
  </defs>
  <rect width="400" height="600" fill="url(#sky)"/>
    <g filter="url(#soft)" opacity="0.9">
      <ellipse cx="256.0" cy="140.0" rx="120.0" ry="104.0" fill="#FFD979" opacity="0.30"/>
      <ellipse cx="112.0" cy="268.0" rx="96.0" ry="84.0" fill="#4C3008" opacity="0.24"/>
    </g>
    <rect width="400" height="600" fill="url(#rim)"/>
    <g opacity="0.85" fill="#120B02">
      <ellipse cx="154.0" cy="202.0" rx="28.0" ry="32.5"/>
      <path d="M 67.2 628.0
               C 67.2 266.1
                 114.2 236.7
                 154.0 236.7
               C 193.8 236.7
                 240.8 266.1
                 240.8 628.0
               Z"/>
    </g>
    <g opacity="0.92" fill="#120B02">
      <ellipse cx="250.0" cy="184.8" rx="31.4" ry="36.4"/>
      <path d="M 152.8 631.4
               C 152.8 256.6
                 205.5 223.7
                 250.0 223.7
               C 294.5 223.7
                 347.2 256.6
                 347.2 631.4
               Z"/>
    </g>
    <rect width="400" height="600" fill="url(#sweep)"/>
    <circle cx="247.1" cy="51.5" r="1.9" fill="#FFF0C4" opacity="0.47"/><circle cx="394.7" cy="422.7" r="0.6" fill="#FFF0C4" opacity="0.29"/><circle cx="21.5" cy="388.8" r="2.3" fill="#FFF0C4" opacity="0.63"/><circle cx="221.7" cy="28.5" r="1.1" fill="#FFF0C4" opacity="0.51"/><circle cx="334.9" cy="72.4" r="1.2" fill="#FFF0C4" opacity="0.50"/><circle cx="213.0" cy="221.0" r="1.2" fill="#FFF0C4" opacity="0.26"/><circle cx="219.7" cy="241.4" r="1.1" fill="#FFF0C4" opacity="0.59"/><circle cx="102.6" cy="251.9" r="2.0" fill="#FFF0C4" opacity="0.60"/><circle cx="42.7" cy="107.7" r="2.2" fill="#FFF0C4" opacity="0.29"/><circle cx="69.8" cy="214.8" r="0.9" fill="#FFF0C4" opacity="0.53"/><circle cx="359.0" cy="92.5" r="2.4" fill="#FFF0C4" opacity="0.67"/><circle cx="94.0" cy="8.9" r="2.1" fill="#FFF0C4" opacity="0.47"/><circle cx="324.8" cy="162.9" r="1.1" fill="#FFF0C4" opacity="0.24"/><circle cx="383.0" cy="100.3" r="2.1" fill="#FFF0C4" opacity="0.67"/><circle cx="7.7" cy="240.1" r="2.0" fill="#FFF0C4" opacity="0.54"/><circle cx="118.8" cy="366.6" r="0.7" fill="#FFF0C4" opacity="0.48"/><circle cx="6.5" cy="175.9" r="1.4" fill="#FFF0C4" opacity="0.38"/><circle cx="354.0" cy="392.1" r="1.6" fill="#FFF0C4" opacity="0.64"/><circle cx="271.9" cy="177.5" r="2.5" fill="#FFF0C4" opacity="0.27"/><circle cx="202.2" cy="304.2" r="1.4" fill="#FFF0C4" opacity="0.48"/><circle cx="364.0" cy="311.8" r="1.4" fill="#FFF0C4" opacity="0.40"/><circle cx="-14.6" cy="273.4" r="1.4" fill="#FFF0C4" opacity="0.60"/><circle cx="248.8" cy="136.2" r="1.0" fill="#FFF0C4" opacity="0.55"/><circle cx="160.0" cy="477.4" r="2.0" fill="#FFF0C4" opacity="0.32"/><circle cx="281.5" cy="232.6" r="0.7" fill="#FFF0C4" opacity="0.44"/><circle cx="235.0" cy="255.2" r="1.2" fill="#FFF0C4" opacity="0.47"/>
    <rect width="400" height="600" fill="url(#vig)"/>
    <rect width="400" height="600" filter="url(#grain)" opacity="0.5"/>
  <rect width="400" height="600" fill="url(#band)"/>
  <text x="200" y="328" text-anchor="middle" font-family="Georgia, Times New Roman, serif" font-size="38" font-weight="700" fill="#FFFFFF" style="paint-order: stroke; stroke: rgba(0,0,0,0.35); stroke-width: 6px; stroke-linejoin: round"><tspan x="200" dy="0">Kitchen of</tspan><tspan x="200" dy="41.8">Second Chances</tspan></text>
</svg>
