<svg xmlns="http://www.w3.org/2000/svg" width="360" height="480" viewBox="0 0 360 480" role="img" aria-label="Silver Harbor Storm">
  <defs><linearGradient id="sky" x1="0.08" y1="0" x2="0.92" y2="1">
      <stop offset="0" stop-color="#08131C"/><stop offset="0.52" stop-color="#1F5A78"/><stop offset="1" stop-color="#08131C"/>
    </linearGradient>
    <radialGradient id="rim" cx="0.55" cy="0.27" r="0.72">
      <stop offset="0" stop-color="#8FD3F2" stop-opacity="0.62"/>
      <stop offset="0.55" stop-color="#8FD3F2" stop-opacity="0.16"/>
      <stop offset="1" stop-color="#8FD3F2" stop-opacity="0"/>
    </radialGradient>
    <linearGradient id="sweep" x1="0" y1="0" x2="1" y2="0.6">
      <stop offset="0" stop-color="#FFFFFF" stop-opacity="0"/>
      <stop offset="0.46" stop-color="#FFFFFF" stop-opacity="0.10"/>
      <stop offset="0.58" stop-color="#FFFFFF" stop-opacity="0"/>
    </linearGradient>
    <radialGradient id="vig" cx="0.5" cy="0.44" r="0.78">
      <stop offset="0.45" stop-color="#000000" stop-opacity="0"/>
      <stop offset="1" stop-color="#000000" stop-opacity="0.62"/>
    </radialGradient>
    <filter id="grain" x="0" y="0" width="100%" height="100%">
      <feTurbulence type="fractalNoise" baseFrequency="0.9" numOctaves="3" seed="15" result="n"/>
      <feColorMatrix in="n" type="saturate" values="0"/>
      <feComponentTransfer><feFuncA type="linear" slope="0.16"/></feComponentTransfer>
    </filter><filter id="soft" x="-30%" y="-30%" width="160%" height="160%">
      <feGaussianBlur stdDeviation="16"/>
    </filter>
    <linearGradient id="scrim" x1="0" y1="0.34" x2="0" y2="1">
      <stop offset="0" stop-color="#05030A" stop-opacity="0"/>
      <stop offset="0.34" stop-color="#05030A" stop-opacity="0.22"/>
      <stop offset="0.68" stop-color="#05030A" stop-opacity="0.70"/>
      <stop offset="1" stop-color="#05030A" stop-opacity="0.95"/>
    </linearGradient>
  </defs>
  <rect width="360" height="480" fill="url(#sky)"/>
    <g filter="url(#soft)" opacity="0.9">
      <ellipse cx="248.4" cy="122.4" rx="108.0" ry="93.6" fill="#8FD3F2" opacity="0.30"/>
      <ellipse cx="118.8" cy="237.6" rx="86.4" ry="75.6" fill="#0E2F42" opacity="0.24"/>
    </g>
    <rect width="360" height="480" fill="url(#rim)"/>
    <g opacity="0.85" fill="#04090E">
      <ellipse cx="156.6" cy="178.2" rx="25.2" ry="29.2"/>
      <path d="M 78.5 505.2
               C 78.5 235.9
                 120.8 209.4
                 156.6 209.4
               C 192.4 209.4
                 234.7 235.9
                 234.7 505.2
               Z"/>
    </g>
    <g opacity="0.92" fill="#04090E">
      <ellipse cx="243.0" cy="162.7" rx="28.2" ry="32.7"/>
      <path d="M 155.5 508.2
               C 155.5 227.4
                 202.9 197.7
                 243.0 197.7
               C 283.1 197.7
                 330.5 227.4
                 330.5 508.2
               Z"/>
    </g>
    <rect width="360" height="480" fill="url(#sweep)"/>
    <circle cx="170.9" cy="5.2" r="1.8" fill="#DCF2FC" opacity="0.25"/><circle cx="158.3" cy="345.6" r="0.8" fill="#DCF2FC" opacity="0.45"/><circle cx="132.0" cy="235.6" r="2.3" fill="#DCF2FC" opacity="0.57"/><circle cx="267.4" cy="358.3" r="1.5" fill="#DCF2FC" opacity="0.65"/><circle cx="71.9" cy="297.3" r="1.3" fill="#DCF2FC" opacity="0.43"/><circle cx="267.3" cy="67.7" r="2.0" fill="#DCF2FC" opacity="0.36"/><circle cx="133.5" cy="205.1" r="2.5" fill="#DCF2FC" opacity="0.36"/><circle cx="365.2" cy="389.8" r="0.9" fill="#DCF2FC" opacity="0.53"/><circle cx="64.3" cy="102.3" r="2.4" fill="#DCF2FC" opacity="0.39"/><circle cx="163.7" cy="166.8" r="1.9" fill="#DCF2FC" opacity="0.38"/><circle cx="159.9" cy="370.7" r="2.4" fill="#DCF2FC" opacity="0.22"/><circle cx="74.9" cy="201.8" r="1.7" fill="#DCF2FC" opacity="0.59"/><circle cx="-7.7" cy="99.2" r="1.3" fill="#DCF2FC" opacity="0.23"/><circle cx="150.6" cy="98.7" r="2.3" fill="#DCF2FC" opacity="0.62"/><circle cx="304.5" cy="284.1" r="1.6" fill="#DCF2FC" opacity="0.27"/><circle cx="374.7" cy="216.8" r="1.5" fill="#DCF2FC" opacity="0.56"/><circle cx="33.9" cy="31.7" r="1.4" fill="#DCF2FC" opacity="0.26"/><circle cx="239.7" cy="384.8" r="2.1" fill="#DCF2FC" opacity="0.28"/><circle cx="197.3" cy="260.7" r="0.8" fill="#DCF2FC" opacity="0.62"/><circle cx="275.6" cy="199.8" r="1.5" fill="#DCF2FC" opacity="0.52"/><circle cx="189.6" cy="115.7" r="1.7" fill="#DCF2FC" opacity="0.27"/><circle cx="323.5" cy="217.0" r="0.6" fill="#DCF2FC" opacity="0.27"/><circle cx="371.7" cy="42.6" r="1.1" fill="#DCF2FC" opacity="0.27"/><circle cx="45.4" cy="327.7" r="0.8" fill="#DCF2FC" opacity="0.27"/><circle cx="86.2" cy="260.6" r="0.7" fill="#DCF2FC" opacity="0.25"/><circle cx="282.9" cy="334.0" r="1.4" fill="#DCF2FC" opacity="0.27"/>
    <rect width="360" height="480" fill="url(#vig)"/>
    <rect width="360" height="480" filter="url(#grain)" opacity="0.5"/>
  <rect width="360" height="480" fill="url(#scrim)"/>
  <text x="24" y="357.2" font-family="Helvetica Neue, Helvetica, Arial, sans-serif" font-size="11" font-weight="700" letter-spacing="3.2" fill="#8FD3F2" opacity="0.95"></text>
  <text x="24" y="407.2" font-family="Georgia, Times New Roman, serif" font-size="34" font-weight="700" fill="#FFFFFF"><tspan x="24" dy="0">Silver Harbor</tspan><tspan x="24" dy="38.8">Storm</tspan></text>
</svg>
