<svg xmlns="http://www.w3.org/2000/svg" width="1600" height="900" viewBox="0 0 1600 900" role="img" aria-label="Midnight CEO: Double Identity">
  <defs><linearGradient id="sky" x1="0.08" y1="0" x2="0.92" y2="1">
      <stop offset="0" stop-color="#120A22"/><stop offset="0.52" stop-color="#C2337A"/><stop offset="1" stop-color="#120A22"/>
    </linearGradient>
    <radialGradient id="rim" cx="0.64" cy="0.36" r="0.72">
      <stop offset="0" stop-color="#FF9BD0" stop-opacity="0.62"/>
      <stop offset="0.55" stop-color="#FF9BD0" stop-opacity="0.16"/>
      <stop offset="1" stop-color="#FF9BD0" stop-opacity="0"/>
    </radialGradient>
    <linearGradient id="sweep" x1="0" y1="0" x2="1" y2="0.6">
      <stop offset="0" stop-color="#FFFFFF" stop-opacity="0"/>
      <stop offset="0.46" stop-color="#FFFFFF" stop-opacity="0.10"/>
      <stop offset="0.58" stop-color="#FFFFFF" stop-opacity="0"/>
    </linearGradient>
    <radialGradient id="vig" cx="0.5" cy="0.44" r="0.78">
      <stop offset="0.45" stop-color="#000000" stop-opacity="0"/>
      <stop offset="1" stop-color="#000000" stop-opacity="0.62"/>
    </radialGradient>
    <filter id="grain" x="0" y="0" width="100%" height="100%">
      <feTurbulence type="fractalNoise" baseFrequency="0.9" numOctaves="3" seed="8" result="n"/>
      <feColorMatrix in="n" type="saturate" values="0"/>
      <feComponentTransfer><feFuncA type="linear" slope="0.16"/></feComponentTransfer>
    </filter><filter id="soft" x="-30%" y="-30%" width="160%" height="160%">
      <feGaussianBlur stdDeviation="41"/>
    </filter></defs>
  <rect width="1600" height="900" fill="url(#sky)"/>
    <g filter="url(#soft)" opacity="0.9">
      <ellipse cx="1150.0" cy="288.0" rx="270.0" ry="234.0" fill="#FF9BD0" opacity="0.30"/>
      <ellipse cx="826.0" cy="576.0" rx="216.0" ry="189.0" fill="#43104A" opacity="0.24"/>
    </g>
    <rect width="1600" height="900" fill="url(#rim)"/>
    <g opacity="0.85" fill="#0A0514">
      <ellipse cx="920.5" cy="427.5" rx="63.0" ry="73.1"/>
      <path d="M 725.2 963.0
               C 725.2 571.8
                 831.0 505.6
                 920.5 505.6
               C 1010.0 505.6
                 1115.8 571.8
                 1115.8 963.0
               Z"/>
    </g>
    <g opacity="0.92" fill="#0A0514">
      <ellipse cx="1136.5" cy="388.8" rx="70.6" ry="81.8"/>
      <path d="M 917.8 970.6
               C 917.8 550.4
                 1036.3 476.3
                 1136.5 476.3
               C 1236.7 476.3
                 1355.2 550.4
                 1355.2 970.6
               Z"/>
    </g>
    <rect width="1600" height="900" fill="url(#sweep)"/>
    <circle cx="696.1" cy="372.0" r="0.9" fill="#FFE1F1" opacity="0.30"/><circle cx="884.9" cy="623.6" r="0.9" fill="#FFE1F1" opacity="0.41"/><circle cx="-13.1" cy="476.0" r="1.4" fill="#FFE1F1" opacity="0.53"/><circle cx="1596.7" cy="341.9" r="1.1" fill="#FFE1F1" opacity="0.39"/><circle cx="1168.3" cy="723.9" r="1.8" fill="#FFE1F1" opacity="0.63"/><circle cx="656.3" cy="12.2" r="1.9" fill="#FFE1F1" opacity="0.27"/><circle cx="949.8" cy="625.4" r="1.2" fill="#FFE1F1" opacity="0.34"/><circle cx="1031.5" cy="75.5" r="1.8" fill="#FFE1F1" opacity="0.38"/><circle cx="1437.4" cy="425.0" r="1.5" fill="#FFE1F1" opacity="0.43"/><circle cx="773.8" cy="227.2" r="0.8" fill="#FFE1F1" opacity="0.27"/><circle cx="1377.8" cy="207.6" r="2.1" fill="#FFE1F1" opacity="0.46"/><circle cx="891.8" cy="374.6" r="2.1" fill="#FFE1F1" opacity="0.40"/><circle cx="1390.1" cy="417.0" r="0.7" fill="#FFE1F1" opacity="0.25"/><circle cx="248.6" cy="141.8" r="1.1" fill="#FFE1F1" opacity="0.57"/><circle cx="385.6" cy="724.6" r="1.8" fill="#FFE1F1" opacity="0.36"/><circle cx="1679.7" cy="261.8" r="1.6" fill="#FFE1F1" opacity="0.35"/><circle cx="1410.6" cy="518.5" r="0.8" fill="#FFE1F1" opacity="0.54"/><circle cx="1009.2" cy="518.2" r="0.8" fill="#FFE1F1" opacity="0.39"/><circle cx="1409.8" cy="94.9" r="1.4" fill="#FFE1F1" opacity="0.30"/><circle cx="1273.8" cy="582.3" r="2.0" fill="#FFE1F1" opacity="0.50"/><circle cx="1103.8" cy="42.2" r="2.0" fill="#FFE1F1" opacity="0.34"/><circle cx="782.4" cy="320.7" r="2.5" fill="#FFE1F1" opacity="0.35"/><circle cx="487.8" cy="529.5" r="2.1" fill="#FFE1F1" opacity="0.22"/><circle cx="1298.3" cy="643.9" r="1.5" fill="#FFE1F1" opacity="0.31"/><circle cx="-59.0" cy="620.9" r="1.2" fill="#FFE1F1" opacity="0.28"/><circle cx="797.1" cy="285.0" r="0.8" fill="#FFE1F1" opacity="0.58"/>
    <rect width="1600" height="900" fill="url(#vig)"/>
    <rect width="1600" height="900" filter="url(#grain)" opacity="0.5"/>
</svg>
