<svg xmlns="http://www.w3.org/2000/svg" width="360" height="480" viewBox="0 0 360 480" role="img" aria-label="Moonlit Bride of the Wolf King">
  <defs><linearGradient id="sky" x1="0.08" y1="0" x2="0.92" y2="1">
      <stop offset="0" stop-color="#101A2E"/><stop offset="0.52" stop-color="#3F4FA8"/><stop offset="1" stop-color="#101A2E"/>
    </linearGradient>
    <radialGradient id="rim" cx="0.55" cy="0.27" r="0.72">
      <stop offset="0" stop-color="#A9B4FF" stop-opacity="0.62"/>
      <stop offset="0.55" stop-color="#A9B4FF" stop-opacity="0.16"/>
      <stop offset="1" stop-color="#A9B4FF" stop-opacity="0"/>
    </radialGradient>
    <linearGradient id="sweep" x1="0" y1="0" x2="1" y2="0.6">
      <stop offset="0" stop-color="#FFFFFF" stop-opacity="0"/>
      <stop offset="0.46" stop-color="#FFFFFF" stop-opacity="0.10"/>
      <stop offset="0.58" stop-color="#FFFFFF" stop-opacity="0"/>
    </linearGradient>
    <radialGradient id="vig" cx="0.5" cy="0.44" r="0.78">
      <stop offset="0.45" stop-color="#000000" stop-opacity="0"/>
      <stop offset="1" stop-color="#000000" stop-opacity="0.62"/>
    </radialGradient>
    <filter id="grain" x="0" y="0" width="100%" height="100%">
      <feTurbulence type="fractalNoise" baseFrequency="0.9" numOctaves="3" seed="73" result="n"/>
      <feColorMatrix in="n" type="saturate" values="0"/>
      <feComponentTransfer><feFuncA type="linear" slope="0.16"/></feComponentTransfer>
    </filter><filter id="soft" x="-30%" y="-30%" width="160%" height="160%">
      <feGaussianBlur stdDeviation="16"/>
    </filter>
    <linearGradient id="scrim" x1="0" y1="0.34" x2="0" y2="1">
      <stop offset="0" stop-color="#05030A" stop-opacity="0"/>
      <stop offset="0.34" stop-color="#05030A" stop-opacity="0.22"/>
      <stop offset="0.68" stop-color="#05030A" stop-opacity="0.70"/>
      <stop offset="1" stop-color="#05030A" stop-opacity="0.95"/>
    </linearGradient>
  </defs>
  <rect width="360" height="480" fill="url(#sky)"/>
    <g filter="url(#soft)" opacity="0.9">
      <ellipse cx="248.4" cy="122.4" rx="108.0" ry="93.6" fill="#A9B4FF" opacity="0.30"/>
      <ellipse cx="118.8" cy="237.6" rx="86.4" ry="75.6" fill="#1C2455" opacity="0.24"/>
    </g>
    <rect width="360" height="480" fill="url(#rim)"/>
    <g opacity="0.85" fill="#070B16">
      <ellipse cx="156.6" cy="178.2" rx="25.2" ry="29.2"/>
      <path d="M 78.5 505.2
               C 78.5 235.9
                 120.8 209.4
                 156.6 209.4
               C 192.4 209.4
                 234.7 235.9
                 234.7 505.2
               Z"/>
    </g>
    <g opacity="0.92" fill="#070B16">
      <ellipse cx="243.0" cy="162.7" rx="28.2" ry="32.7"/>
      <path d="M 155.5 508.2
               C 155.5 227.4
                 202.9 197.7
                 243.0 197.7
               C 283.1 197.7
                 330.5 227.4
                 330.5 508.2
               Z"/>
    </g>
    <rect width="360" height="480" fill="url(#sweep)"/>
    <circle cx="273.3" cy="4.5" r="2.2" fill="#E2E6FF" opacity="0.54"/><circle cx="66.6" cy="10.8" r="1.9" fill="#E2E6FF" opacity="0.47"/><circle cx="128.6" cy="175.3" r="1.6" fill="#E2E6FF" opacity="0.44"/><circle cx="50.7" cy="385.6" r="1.5" fill="#E2E6FF" opacity="0.60"/><circle cx="82.1" cy="386.4" r="2.4" fill="#E2E6FF" opacity="0.54"/><circle cx="146.1" cy="279.7" r="1.7" fill="#E2E6FF" opacity="0.66"/><circle cx="181.0" cy="37.3" r="0.7" fill="#E2E6FF" opacity="0.32"/><circle cx="201.9" cy="318.3" r="2.0" fill="#E2E6FF" opacity="0.36"/><circle cx="127.7" cy="41.6" r="0.6" fill="#E2E6FF" opacity="0.52"/><circle cx="122.7" cy="100.9" r="2.4" fill="#E2E6FF" opacity="0.22"/><circle cx="136.2" cy="288.9" r="2.3" fill="#E2E6FF" opacity="0.36"/><circle cx="21.7" cy="373.1" r="0.8" fill="#E2E6FF" opacity="0.31"/><circle cx="107.3" cy="81.5" r="1.0" fill="#E2E6FF" opacity="0.60"/><circle cx="231.8" cy="313.8" r="1.6" fill="#E2E6FF" opacity="0.57"/><circle cx="298.2" cy="135.7" r="1.3" fill="#E2E6FF" opacity="0.58"/><circle cx="257.5" cy="11.5" r="1.6" fill="#E2E6FF" opacity="0.45"/><circle cx="127.7" cy="163.3" r="1.5" fill="#E2E6FF" opacity="0.59"/><circle cx="106.9" cy="288.8" r="0.7" fill="#E2E6FF" opacity="0.66"/><circle cx="284.7" cy="5.8" r="1.3" fill="#E2E6FF" opacity="0.51"/><circle cx="322.2" cy="76.5" r="2.2" fill="#E2E6FF" opacity="0.51"/><circle cx="54.2" cy="239.0" r="1.4" fill="#E2E6FF" opacity="0.40"/><circle cx="239.0" cy="202.2" r="1.6" fill="#E2E6FF" opacity="0.44"/><circle cx="104.9" cy="122.1" r="1.3" fill="#E2E6FF" opacity="0.22"/><circle cx="323.1" cy="10.9" r="1.3" fill="#E2E6FF" opacity="0.37"/><circle cx="294.0" cy="198.4" r="1.7" fill="#E2E6FF" opacity="0.52"/><circle cx="342.4" cy="216.9" r="0.8" fill="#E2E6FF" opacity="0.31"/>
    <rect width="360" height="480" fill="url(#vig)"/>
    <rect width="360" height="480" filter="url(#grain)" opacity="0.5"/>
  <rect width="360" height="480" fill="url(#scrim)"/>
  <text x="24" y="357.2" font-family="Helvetica Neue, Helvetica, Arial, sans-serif" font-size="11" font-weight="700" letter-spacing="3.2" fill="#A9B4FF" opacity="0.95">ORIGINAL</text>
  <text x="24" y="407.2" font-family="Georgia, Times New Roman, serif" font-size="34" font-weight="700" fill="#FFFFFF"><tspan x="24" dy="0">Moonlit Bride of</tspan><tspan x="24" dy="38.8">the Wolf King</tspan></text>
</svg>
