<svg xmlns="http://www.w3.org/2000/svg" width="360" height="480" viewBox="0 0 360 480" role="img" aria-label="Swapped With My Billionaire Twin">
  <defs><linearGradient id="sky" x1="0.08" y1="0" x2="0.92" y2="1">
      <stop offset="0" stop-color="#0A2320"/><stop offset="0.52" stop-color="#1E8E7A"/><stop offset="1" stop-color="#0A2320"/>
    </linearGradient>
    <radialGradient id="rim" cx="0.55" cy="0.27" r="0.72">
      <stop offset="0" stop-color="#7BF0D8" stop-opacity="0.62"/>
      <stop offset="0.55" stop-color="#7BF0D8" stop-opacity="0.16"/>
      <stop offset="1" stop-color="#7BF0D8" stop-opacity="0"/>
    </radialGradient>
    <linearGradient id="sweep" x1="0" y1="0" x2="1" y2="0.6">
      <stop offset="0" stop-color="#FFFFFF" stop-opacity="0"/>
      <stop offset="0.46" stop-color="#FFFFFF" stop-opacity="0.10"/>
      <stop offset="0.58" stop-color="#FFFFFF" stop-opacity="0"/>
    </linearGradient>
    <radialGradient id="vig" cx="0.5" cy="0.44" r="0.78">
      <stop offset="0.45" stop-color="#000000" stop-opacity="0"/>
      <stop offset="1" stop-color="#000000" stop-opacity="0.62"/>
    </radialGradient>
    <filter id="grain" x="0" y="0" width="100%" height="100%">
      <feTurbulence type="fractalNoise" baseFrequency="0.9" numOctaves="3" seed="28" result="n"/>
      <feColorMatrix in="n" type="saturate" values="0"/>
      <feComponentTransfer><feFuncA type="linear" slope="0.16"/></feComponentTransfer>
    </filter><filter id="soft" x="-30%" y="-30%" width="160%" height="160%">
      <feGaussianBlur stdDeviation="16"/>
    </filter>
    <linearGradient id="scrim" x1="0" y1="0.34" x2="0" y2="1">
      <stop offset="0" stop-color="#05030A" stop-opacity="0"/>
      <stop offset="0.34" stop-color="#05030A" stop-opacity="0.22"/>
      <stop offset="0.68" stop-color="#05030A" stop-opacity="0.70"/>
      <stop offset="1" stop-color="#05030A" stop-opacity="0.95"/>
    </linearGradient>
  </defs>
  <rect width="360" height="480" fill="url(#sky)"/>
    <g filter="url(#soft)" opacity="0.9">
      <ellipse cx="248.4" cy="122.4" rx="108.0" ry="93.6" fill="#7BF0D8" opacity="0.30"/>
      <ellipse cx="118.8" cy="237.6" rx="86.4" ry="75.6" fill="#0D4A3F" opacity="0.24"/>
    </g>
    <rect width="360" height="480" fill="url(#rim)"/>
    <g opacity="0.85" fill="#04120F">
      <ellipse cx="156.6" cy="178.2" rx="25.2" ry="29.2"/>
      <path d="M 78.5 505.2
               C 78.5 235.9
                 120.8 209.4
                 156.6 209.4
               C 192.4 209.4
                 234.7 235.9
                 234.7 505.2
               Z"/>
    </g>
    <g opacity="0.92" fill="#04120F">
      <ellipse cx="243.0" cy="162.7" rx="28.2" ry="32.7"/>
      <path d="M 155.5 508.2
               C 155.5 227.4
                 202.9 197.7
                 243.0 197.7
               C 283.1 197.7
                 330.5 227.4
                 330.5 508.2
               Z"/>
    </g>
    <rect width="360" height="480" fill="url(#sweep)"/>
    <circle cx="367.7" cy="13.8" r="0.9" fill="#D8FFF5" opacity="0.28"/><circle cx="61.2" cy="196.0" r="1.3" fill="#D8FFF5" opacity="0.30"/><circle cx="53.5" cy="332.0" r="1.9" fill="#D8FFF5" opacity="0.58"/><circle cx="297.9" cy="37.3" r="1.7" fill="#D8FFF5" opacity="0.44"/><circle cx="308.7" cy="281.2" r="1.9" fill="#D8FFF5" opacity="0.19"/><circle cx="307.3" cy="172.7" r="1.0" fill="#D8FFF5" opacity="0.46"/><circle cx="229.3" cy="385.3" r="2.2" fill="#D8FFF5" opacity="0.29"/><circle cx="87.0" cy="259.5" r="1.5" fill="#D8FFF5" opacity="0.53"/><circle cx="245.1" cy="96.5" r="1.8" fill="#D8FFF5" opacity="0.34"/><circle cx="105.3" cy="332.7" r="1.9" fill="#D8FFF5" opacity="0.28"/><circle cx="61.4" cy="93.7" r="2.2" fill="#D8FFF5" opacity="0.57"/><circle cx="163.2" cy="97.0" r="1.3" fill="#D8FFF5" opacity="0.42"/><circle cx="149.5" cy="57.6" r="0.8" fill="#D8FFF5" opacity="0.67"/><circle cx="251.3" cy="118.8" r="1.6" fill="#D8FFF5" opacity="0.43"/><circle cx="90.0" cy="219.9" r="1.8" fill="#D8FFF5" opacity="0.28"/><circle cx="236.7" cy="272.8" r="1.7" fill="#D8FFF5" opacity="0.59"/><circle cx="114.9" cy="6.8" r="1.2" fill="#D8FFF5" opacity="0.63"/><circle cx="162.1" cy="174.2" r="2.1" fill="#D8FFF5" opacity="0.34"/><circle cx="151.9" cy="365.8" r="0.7" fill="#D8FFF5" opacity="0.25"/><circle cx="271.3" cy="271.4" r="2.0" fill="#D8FFF5" opacity="0.41"/><circle cx="312.0" cy="355.6" r="2.2" fill="#D8FFF5" opacity="0.50"/><circle cx="272.6" cy="190.0" r="0.9" fill="#D8FFF5" opacity="0.37"/><circle cx="216.3" cy="287.4" r="0.8" fill="#D8FFF5" opacity="0.60"/><circle cx="364.9" cy="344.4" r="0.8" fill="#D8FFF5" opacity="0.48"/><circle cx="370.4" cy="112.0" r="2.2" fill="#D8FFF5" opacity="0.65"/><circle cx="214.4" cy="326.1" r="1.3" fill="#D8FFF5" opacity="0.40"/>
    <rect width="360" height="480" fill="url(#vig)"/>
    <rect width="360" height="480" filter="url(#grain)" opacity="0.5"/>
  <rect width="360" height="480" fill="url(#scrim)"/>
  <text x="24" y="357.2" font-family="Helvetica Neue, Helvetica, Arial, sans-serif" font-size="11" font-weight="700" letter-spacing="3.2" fill="#7BF0D8" opacity="0.95"></text>
  <text x="24" y="407.2" font-family="Georgia, Times New Roman, serif" font-size="34" font-weight="700" fill="#FFFFFF"><tspan x="24" dy="0">Swapped With My</tspan><tspan x="24" dy="38.8">Billionaire Twin</tspan></text>
</svg>
