<svg xmlns="http://www.w3.org/2000/svg" width="360" height="480" viewBox="0 0 360 480" role="img" aria-label="The Last Heiress of Nightvale">
  <defs><linearGradient id="sky" x1="0.08" y1="0" x2="0.92" y2="1">
      <stop offset="0" stop-color="#0C1410"/><stop offset="0.52" stop-color="#2C6B4B"/><stop offset="1" stop-color="#0C1410"/>
    </linearGradient>
    <radialGradient id="rim" cx="0.55" cy="0.27" r="0.72">
      <stop offset="0" stop-color="#8CE0B4" stop-opacity="0.62"/>
      <stop offset="0.55" stop-color="#8CE0B4" stop-opacity="0.16"/>
      <stop offset="1" stop-color="#8CE0B4" stop-opacity="0"/>
    </radialGradient>
    <linearGradient id="sweep" x1="0" y1="0" x2="1" y2="0.6">
      <stop offset="0" stop-color="#FFFFFF" stop-opacity="0"/>
      <stop offset="0.46" stop-color="#FFFFFF" stop-opacity="0.10"/>
      <stop offset="0.58" stop-color="#FFFFFF" stop-opacity="0"/>
    </linearGradient>
    <radialGradient id="vig" cx="0.5" cy="0.44" r="0.78">
      <stop offset="0.45" stop-color="#000000" stop-opacity="0"/>
      <stop offset="1" stop-color="#000000" stop-opacity="0.62"/>
    </radialGradient>
    <filter id="grain" x="0" y="0" width="100%" height="100%">
      <feTurbulence type="fractalNoise" baseFrequency="0.9" numOctaves="3" seed="43" result="n"/>
      <feColorMatrix in="n" type="saturate" values="0"/>
      <feComponentTransfer><feFuncA type="linear" slope="0.16"/></feComponentTransfer>
    </filter><filter id="soft" x="-30%" y="-30%" width="160%" height="160%">
      <feGaussianBlur stdDeviation="16"/>
    </filter>
    <linearGradient id="scrim" x1="0" y1="0.34" x2="0" y2="1">
      <stop offset="0" stop-color="#05030A" stop-opacity="0"/>
      <stop offset="0.34" stop-color="#05030A" stop-opacity="0.22"/>
      <stop offset="0.68" stop-color="#05030A" stop-opacity="0.70"/>
      <stop offset="1" stop-color="#05030A" stop-opacity="0.95"/>
    </linearGradient>
  </defs>
  <rect width="360" height="480" fill="url(#sky)"/>
    <g filter="url(#soft)" opacity="0.9">
      <ellipse cx="248.4" cy="122.4" rx="108.0" ry="93.6" fill="#8CE0B4" opacity="0.30"/>
      <ellipse cx="118.8" cy="237.6" rx="86.4" ry="75.6" fill="#123528" opacity="0.24"/>
    </g>
    <rect width="360" height="480" fill="url(#rim)"/>
    <g opacity="0.85" fill="#050A07">
      <ellipse cx="156.6" cy="178.2" rx="25.2" ry="29.2"/>
      <path d="M 78.5 505.2
               C 78.5 235.9
                 120.8 209.4
                 156.6 209.4
               C 192.4 209.4
                 234.7 235.9
                 234.7 505.2
               Z"/>
    </g>
    <g opacity="0.92" fill="#050A07">
      <ellipse cx="243.0" cy="162.7" rx="28.2" ry="32.7"/>
      <path d="M 155.5 508.2
               C 155.5 227.4
                 202.9 197.7
                 243.0 197.7
               C 283.1 197.7
                 330.5 227.4
                 330.5 508.2
               Z"/>
    </g>
    <rect width="360" height="480" fill="url(#sweep)"/>
    <circle cx="312.6" cy="50.6" r="0.7" fill="#D9F7E7" opacity="0.63"/><circle cx="219.0" cy="158.2" r="1.5" fill="#D9F7E7" opacity="0.51"/><circle cx="257.4" cy="144.5" r="0.8" fill="#D9F7E7" opacity="0.25"/><circle cx="0.4" cy="164.5" r="1.7" fill="#D9F7E7" opacity="0.66"/><circle cx="-3.7" cy="136.4" r="1.4" fill="#D9F7E7" opacity="0.47"/><circle cx="189.3" cy="335.7" r="0.8" fill="#D9F7E7" opacity="0.23"/><circle cx="126.9" cy="246.5" r="0.7" fill="#D9F7E7" opacity="0.26"/><circle cx="-8.6" cy="253.9" r="1.7" fill="#D9F7E7" opacity="0.22"/><circle cx="174.7" cy="224.8" r="2.4" fill="#D9F7E7" opacity="0.61"/><circle cx="16.9" cy="86.4" r="1.4" fill="#D9F7E7" opacity="0.41"/><circle cx="125.8" cy="366.6" r="2.0" fill="#D9F7E7" opacity="0.34"/><circle cx="-5.8" cy="131.3" r="1.3" fill="#D9F7E7" opacity="0.32"/><circle cx="152.2" cy="263.9" r="1.2" fill="#D9F7E7" opacity="0.36"/><circle cx="134.4" cy="161.9" r="2.3" fill="#D9F7E7" opacity="0.53"/><circle cx="258.0" cy="348.6" r="1.4" fill="#D9F7E7" opacity="0.57"/><circle cx="341.8" cy="160.1" r="2.5" fill="#D9F7E7" opacity="0.29"/><circle cx="172.0" cy="234.0" r="2.1" fill="#D9F7E7" opacity="0.56"/><circle cx="1.5" cy="192.8" r="2.3" fill="#D9F7E7" opacity="0.41"/><circle cx="362.1" cy="58.5" r="1.3" fill="#D9F7E7" opacity="0.41"/><circle cx="291.1" cy="335.1" r="1.4" fill="#D9F7E7" opacity="0.49"/><circle cx="131.6" cy="236.1" r="2.2" fill="#D9F7E7" opacity="0.20"/><circle cx="177.4" cy="376.8" r="2.4" fill="#D9F7E7" opacity="0.27"/><circle cx="128.5" cy="384.5" r="0.7" fill="#D9F7E7" opacity="0.52"/><circle cx="26.2" cy="82.6" r="1.5" fill="#D9F7E7" opacity="0.52"/><circle cx="3.7" cy="383.3" r="1.7" fill="#D9F7E7" opacity="0.55"/><circle cx="-3.2" cy="291.3" r="2.1" fill="#D9F7E7" opacity="0.45"/>
    <rect width="360" height="480" fill="url(#vig)"/>
    <rect width="360" height="480" filter="url(#grain)" opacity="0.5"/>
  <rect width="360" height="480" fill="url(#scrim)"/>
  <text x="24" y="357.2" font-family="Helvetica Neue, Helvetica, Arial, sans-serif" font-size="11" font-weight="700" letter-spacing="3.2" fill="#8CE0B4" opacity="0.95">ORIGINAL</text>
  <text x="24" y="407.2" font-family="Georgia, Times New Roman, serif" font-size="34" font-weight="700" fill="#FFFFFF"><tspan x="24" dy="0">The Last Heiress</tspan><tspan x="24" dy="38.8">of Nightvale</tspan></text>
</svg>
