<svg xmlns="http://www.w3.org/2000/svg" viewBox="0 0 96 96" width="96" height="96">
  <defs>
    <linearGradient id="wood" x1="0" y1="0" x2="0" y2="1">
      <stop offset="0" stop-color="#FF5C7A"/><stop offset=".55" stop-color="#E5225A"/><stop offset="1" stop-color="#A50F3C"/>
    </linearGradient>
    <linearGradient id="gold" x1="0" y1="0" x2="0" y2="1">
      <stop offset="0" stop-color="#FFE39A"/><stop offset=".5" stop-color="#F0B44A"/><stop offset="1" stop-color="#C98A1E"/>
    </linearGradient>
    <linearGradient id="gold2" x1="0" y1="0" x2="0" y2="1">
      <stop offset="0" stop-color="#FFE9A8"/><stop offset=".5" stop-color="#F6B63D"/><stop offset="1" stop-color="#C0801A"/>
    </linearGradient>
    <radialGradient id="glow" cx=".5" cy=".45" r=".55">
      <stop offset="0" stop-color="#FF9BB4" stop-opacity=".95"/><stop offset="1" stop-color="#FF2D55" stop-opacity="0"/>
    </radialGradient>
  </defs>
  <ellipse cx="48" cy="47" rx="34" ry="26" fill="url(#glow)"/>
  <path d="M20 44a28 22 0 0 1 56 0v6H20z" fill="url(#wood)"/>
  <path d="M20 44a28 22 0 0 1 56 0" fill="none" stroke="url(#gold2)" stroke-width="5"/>
  <rect x="18" y="48" width="60" height="28" rx="5" fill="url(#wood)"/>
  <rect x="18" y="48" width="60" height="7" fill="url(#gold2)"/>
  <rect x="16" y="70" width="64" height="8" rx="4" fill="url(#gold2)"/>
  <rect x="41" y="44" width="14" height="24" rx="3" fill="url(#gold2)"/>
  <circle cx="48" cy="57" r="4.6" fill="#8A5B0C"/>
  <rect x="46.4" y="57" width="3.2" height="7" rx="1.4" fill="#8A5B0C"/>
  <path d="M30 30l2.2 5.2L37.5 37l-5.3 1.8L30 44l-2.2-5.2L22.5 37l5.3-1.8z" fill="#FFF3C4"/>
  <path d="M69 26l1.6 3.8 3.9 1.4-3.9 1.3L69 36l-1.6-3.5-3.9-1.3 3.9-1.4z" fill="#FFF3C4"/>
</svg>
